<svg xmlns="http://www.w3.org/2000/svg" xmlns:xlink="http://www.w3.org/1999/xlink" viewBox="0,0,256,256" width="24px" height="24px" fill-rule="nonzero"><g fill="#ffffff" fill-rule="nonzero" stroke="none" stroke-width="1" stroke-linecap="butt" stroke-linejoin="miter" stroke-miterlimit="10" stroke-dasharray="" stroke-dashoffset="0" font-family="none" font-weight="none" font-size="none" text-anchor="none" style="mix-blend-mode: normal"><g transform="scale(10.66667,10.66667)"><path d="M18.474,3.394c-1.931,-0.262 -4.109,-0.394 -6.474,-0.394c-2.365,0 -4.543,0.132 -6.474,0.394c-2.01,0.273 -3.526,2 -3.526,4.017v9.179c0,2.017 1.516,3.744 3.526,4.017c1.931,0.261 4.109,0.393 6.474,0.393c2.365,0 4.543,-0.132 6.474,-0.394c2.01,-0.272 3.526,-2 3.526,-4.017v-9.178c0,-2.017 -1.516,-3.744 -3.526,-4.017zM15.977,12.343l-5.172,3.064c-0.359,-0.205 -0.446,-0.254 -0.805,-0.459v-5.896c0.359,-0.205 0.446,-0.254 0.805,-0.459l5.172,3.064c0,0.303 0,0.383 0,0.686z"></path></g></g></svg>